# xmcd
#
# Track frame offsets:
#	182
#	18150
#	42487
#	57645
#	72477
#	96612
#	125850
#	137285
#	155067
#	177527
#	200695
#
# Disc length: 2995 seconds
#
# Revision: 2
# Processed by: cddbd v1.4PL0 Copyright (c) Steve Scherf et al.
# Submitted via: EZCDDA 4.3.2
#
DISCID=af0bb10b
DTITLE=Roach Thompson - Rocking Blues
DYEAR=1900
DGENRE=
TTITLE0=Baby Don't Love Me No More
TTITLE1=Cat Woman
TTITLE2=Hurricane Took My Home
TTITLE3=Shit House Rat
TTITLE4=When I Found You
TTITLE5=Witch Bitch
TTITLE6=Mama Talk To Your Daughter
TTITLE7=Tried To Win Your Love
TTITLE8=Forever Man
TTITLE9=Classy Chassie
TTITLE10=I Can't Help Myself
EXTD=
EXTT0=
EXTT1=
EXTT2=
EXTT3=
EXTT4=
EXTT5=
EXTT6=
EXTT7=
EXTT8=
EXTT9=
EXTT10=
PLAYORDER=
